<svg width="27" height="34" viewBox="0 0 27 34" fill="none" xmlns="http://www.w3.org/2000/svg">
<path d="M1.10669 13.4495H26.0057V22.3333C26.0057 28.2152 21.221 32.9999 15.3391 32.9999H11.7886C5.90669 32.9999 1.12193 28.2152 1.12193 22.3333V13.4495H1.10669Z" stroke="#BA181B" stroke-width="2" stroke-linecap="round" stroke-linejoin="round"/>
<path d="M1.10669 20.5507C2.58478 21.6936 4.80955 22.364 7.32383 22.3336C9.85336 22.364 12.0781 21.6936 13.541 20.5507C15.0038 19.4078 17.2438 18.7374 19.7581 18.7678C22.2876 18.7374 24.5124 19.4078 25.9753 20.5507" stroke="#BA181B" stroke-width="2" stroke-linecap="round" stroke-linejoin="round"/>
<path d="M10.0057 1C8.86287 1.82286 8.1924 3.14857 8.22287 4.55048C8.1924 5.95238 8.86287 7.29333 10.0057 8.10095" stroke="#BA181B" stroke-width="2" stroke-linecap="round" stroke-linejoin="round"/>
<path d="M17.1067 1C15.9638 1.82286 15.2934 3.14857 15.3238 4.55048C15.2934 5.95238 15.9638 7.29333 17.1067 8.10095" stroke="#BA181B" stroke-width="2" stroke-linecap="round" stroke-linejoin="round"/>
</svg>
