<svg width="32" height="31" viewBox="0 0 32 31" fill="none" xmlns="http://www.w3.org/2000/svg">
<path d="M10.594 10.469L11.3741 10.3552L11.7229 9.64816L15.6284 1.72949C15.6284 1.72943 15.6284 1.72937 15.6285 1.72931C15.7762 1.43048 16.2152 1.41627 16.3721 1.73051C16.3723 1.7309 16.3725 1.7313 16.3727 1.73169L20.2771 9.64816L20.6259 10.3552L21.406 10.469L30.1447 11.743L30.1458 11.7432C30.4809 11.7918 30.6194 12.2102 30.3734 12.4498L30.3729 12.4502L24.0507 18.6109L23.4856 19.1616L23.6192 19.9392L25.1144 28.641C25.1705 28.9688 24.8212 29.2367 24.5157 29.0761L24.5155 29.0759L16.6979 24.9668L16 24.5999L15.3021 24.9668L7.48453 29.0759L7.47983 29.0784C7.18483 29.2348 6.82824 28.9781 6.88558 28.6413C6.8856 28.6412 6.88562 28.6411 6.88564 28.641L8.38078 19.9392L8.5144 19.1616L7.9493 18.6109L1.62706 12.4502L1.62664 12.4498C1.38062 12.2102 1.51906 11.7918 1.85421 11.7432L1.8553 11.743L10.594 10.469Z" stroke="#BA181B" stroke-width="3"/>
</svg>
