<svg width="1384" height="1289" viewBox="0 0 1384 1289" fill="none" xmlns="http://www.w3.org/2000/svg">
<g clip-path="url(#clip0_8_5)">
<path d="M755.382 1216.72C693.578 1194.21 652.455 1153.34 614.349 1109.25C575.595 1064.43 543.252 1014.77 513.46 963.704C499.274 939.297 491.607 911.137 478.13 886.257C453.111 840.031 456.497 789.08 450.221 739.635C447.756 720.32 441.908 701.412 439.143 682.082C434.183 647.247 430.292 612.227 426.252 577.263C423.965 557.293 398.308 534.05 379.302 535.305C372.651 535.741 369.23 541.167 367.317 546.12C355.6 576.22 338.959 603.807 324.198 632.382C309.506 660.805 312.129 667.111 339.012 683.426C342.22 685.396 345.362 687.642 347.944 690.305C351.867 694.323 357.115 699.198 354.154 704.958C350.563 712.086 343.861 707.033 339.001 705.716C321.023 700.873 307.702 687.12 290.985 679.541C272.139 670.981 254.922 658.751 233.929 654.852C227.324 653.59 218.472 650.004 219.37 642.188C220.562 631.866 231.034 634.602 238.04 634.329C244.173 634.084 251.717 634.243 256.364 637.489C275.895 651.094 285.263 641.959 293.475 624.001C320.235 565.516 354.05 510.651 380.041 451.566C392.329 423.694 408.218 396.805 421.2 368.761C428.038 353.917 423.864 346.712 408.824 343.223C341.754 327.739 273.938 320.94 206.64 338.884C169.366 348.858 134.886 368.901 109.522 398.488C98.1158 411.781 85.5348 428.156 85.2892 448.556C85.0304 466.984 72.1212 466.872 58.858 467.394C43.7245 467.977 41.4216 457.642 40.821 446.679C40.2278 435.166 43.2744 424.287 50.0001 414.488C82.0443 367.466 128.384 339.681 180.388 322C245.186 300.016 311.775 302.012 378.825 312.205C429.821 319.915 475.117 339.862 517.723 367.781C545.055 385.655 563.34 431.297 554.979 462.514C542.118 510.697 517.169 546.984 463.761 554.377C452.677 555.904 454.634 561.657 455.788 568.884C466.488 635.659 478.754 702.235 487.042 769.312C494.977 833.155 514.135 893.571 538.303 952.18C559.843 1004.36 594.299 1049.04 631.671 1091.25C675.571 1140.89 724.003 1184.7 787.817 1206.85C828.963 1221.14 871.437 1230.15 915.811 1225.16C948.593 1221.47 971.759 1198.12 977.582 1153.88C980.879 1128.99 995.078 1139.77 1005.61 1141.31C1018.9 1143.25 1023 1151.03 1019.33 1166.05C1001.48 1240 924.602 1261.95 854.574 1246.08C819.297 1238.12 781.115 1237.67 755.378 1216.6L755.382 1216.72ZM423.36 432.339C422.853 432.106 422.296 431.849 421.789 431.616C412.289 452.236 402.766 472.906 393.267 493.526C390.583 499.353 387.995 504.302 394.624 510.181C420.186 532.828 456.094 534.754 483.701 514.43C510.381 494.785 519.441 465.918 521.331 435.282C523.01 408.172 496.807 374.114 471.52 365.535C461.325 362.066 453.73 361.085 448.971 375.414C442.487 395.089 432.066 413.442 423.36 432.339Z" fill="#E5383B" fill-opacity="0.04"/>
<path d="M763.702 632.126C775.379 636.646 785.865 642.153 793.97 652.827C801.268 662.453 809.876 653.767 817.106 650.342C826.177 645.984 829.76 637.808 826.553 628.101C824.202 620.938 820.075 614.43 817.058 607.513C808.654 588.287 812.935 576.195 832.372 568.138C847.793 561.731 858.996 556.881 859.607 534.622C860.413 503.671 880.343 492.279 910.803 498.696C943.601 505.638 974.992 516.967 1004.86 532.264C1020.9 540.513 1037.06 544.641 1055.77 541.224C1117.86 529.785 1177.39 538.171 1234.28 566.16C1256.5 577.133 1271.1 595.038 1281.58 616.019C1293.9 640.736 1282.57 660.94 1255.52 667.393C1244.07 670.104 1231.51 670.829 1222.08 665.564C1196.67 651.398 1169.15 641.917 1144.28 626.036C1109.32 603.788 1072.96 582.858 1032.79 570.311C1020.18 566.345 1011.25 574.941 1000.79 578.294C996.1 579.817 991.886 583.096 987.918 586.242C978.767 593.573 962.596 598.406 963.755 610.425C964.87 621.871 980.714 622.414 991.552 624.889C1000.18 626.836 999.79 631.94 994.53 636.825C986.022 644.758 976.407 646.962 964.952 642.36C938.802 631.787 932.012 634.125 916.994 657.791C913.312 663.649 910.27 669.986 907.578 676.362C904.934 682.636 899.542 689.672 903.86 695.899C908.362 702.395 915.356 697.08 921.164 695.272C925.044 694.05 928.636 693.187 930.347 698.274C931.675 702.325 931.03 705.591 927.011 707.915C912.012 716.605 896.291 722.997 878.761 718.913C864.4 715.552 867.002 704.037 869.862 694.362C876.03 673.374 888.057 655.269 901.986 638.901C913.848 625.02 918.909 613.901 897.686 605.167C902.854 596.616 909.823 594.422 917.761 595.193C950.388 598.371 968.128 570.799 992.982 558.051C1000.89 553.956 992.866 548.97 987.818 546.46C961.538 533.37 933.571 526.075 904.466 522.984C887.659 521.198 879.142 528.084 880.878 545.65C881.408 551.299 881.666 557.007 882.89 562.484C885.454 573.983 882.825 579.958 869.594 581.478C842.66 584.607 838.688 593.096 850.349 618.183C862.815 644.991 853.346 665.011 824.888 672.782C803.061 678.695 782.253 672.793 761.59 667.512C752.704 665.199 752.254 658.175 754.017 649.283C755.519 641.622 766.502 640.848 764.247 632.009L763.655 632.228L763.702 632.126ZM1063.02 562.683C1071.13 566.418 1075.51 568.375 1079.8 570.41C1115.59 587.515 1151.44 604.767 1184.61 626.498C1199.02 635.898 1214.27 639.855 1230.57 641.407C1239.16 642.231 1249.15 642.537 1253.53 632.513C1257.5 623.351 1253.44 615.094 1247.48 608.171C1242.99 602.972 1238.16 597.86 1232.64 593.842C1205.75 574.208 1174.91 562.761 1142.83 556.395C1117.86 551.401 1092.12 553.793 1063.02 562.683Z" fill="#E5383B" fill-opacity="0.04"/>
<path d="M938.96 202.376C941.435 204.069 947.106 205.76 948.387 209.114C957.487 232.96 974.402 227.978 993.887 225.285C1024.36 221.144 1045.71 247.994 1033.87 271.958C1028.76 282.38 1020.73 285.556 1013.17 277.285C1006.24 269.669 995.934 268.176 989.517 259.569C983.569 251.547 973.949 256.696 967.063 260.709C951.258 269.949 940.994 284.628 933.12 300.653C926.673 313.713 937.945 318.046 946.383 320.398C954.77 322.727 959.679 327.138 958.016 334.479C955.977 343.305 947.611 342.398 940.794 339.995C919.716 332.68 905.853 337.839 894.873 359.005C878.602 390.324 858.701 419.787 840.882 450.331C836.718 457.502 831.218 465.041 842.139 473.204C849.913 478.997 846.922 486.954 837.032 486.021C814.501 483.994 792.064 481.764 769.406 482.811C765.693 483.004 761.472 481.366 760.927 476.816C760.476 472.862 762.624 468.999 766.012 467.244C770.971 464.615 776.412 461.471 781.796 461.25C804.084 460.34 815.216 445.508 823.62 428.068C839.092 395.951 860.731 367.781 880.436 338.474C889.754 324.649 890.144 315.002 874.754 306.008C861.578 298.341 854.097 303.247 845.989 314.313C826.472 340.943 812.756 370.982 795.831 399.052C773.976 435.291 726.637 459.913 684.862 454.056C678.518 453.16 672.528 451.629 667.027 448.235C651.06 438.36 644.845 422.784 652.743 412.174C659.442 403.1 686.408 401.766 696.456 409.957C720.422 429.535 747.565 424.352 764.163 397.79C783.182 367.307 802.151 336.801 822.445 307.151C830.077 296.05 830.821 289.637 817.856 283.91C813.729 282.07 806.368 281.381 808.471 274.55C809.94 269.761 815.821 266.329 820.856 267.666C846.59 274.608 856.386 259.345 865.975 239.196C873.2 223.915 887.117 212.639 901.386 202.999C913.187 194.986 925.306 196.945 938.933 202.302L938.96 202.376ZM921.022 271.312C922.866 267.31 924.659 263.284 926.554 259.305C930.347 251.471 932.418 243.643 924.421 237.134C916.553 230.745 909.238 233.824 902.088 238.944C890.031 247.515 881.031 258.784 874.155 271.708C869.871 279.806 869.285 288.012 879.984 291.589C906.506 300.553 910.729 298.322 921.022 271.312ZM677.824 437.732C671.635 429.967 671.741 421.602 662.852 419.964C661.948 419.793 659.581 422.264 659.691 423.359C660.449 431.447 663.952 437.176 677.875 437.755L677.824 437.732Z" fill="#E5383B" fill-opacity="0.04"/>
<path d="M1034.3 924.091C1045.64 919.362 1056.83 914.262 1068.33 909.977C1074.49 907.659 1081.58 902.017 1087.71 907.912C1093.73 913.76 1091.71 922.286 1089.39 929.448C1077.52 966.418 1054.63 992.107 1015.17 1000.03C1005.89 1001.9 996.526 1003.29 987.144 1004.19C973.831 1005.49 967.888 1014.79 967.292 1025.82C966.724 1036.92 977.206 1038.43 986.104 1040.32C1010.03 1045.44 1032.36 1043.39 1052.16 1027.2C1060.7 1020.27 1069.21 1021.67 1075.05 1030.32C1082.39 1041.19 1072.38 1044.38 1065.31 1048.13C1044.99 1059.03 1023.7 1062.31 1001.25 1055.71C995.781 1054.11 990.181 1053.07 984.694 1051.64C952.027 1043.35 947.757 1043.29 935.997 1074.41C924.425 1105.13 897.022 1111.55 870.091 1109.33C862.157 1108.69 856.385 1106.15 854.466 1098.45C853.063 1092.83 854.091 1087.53 858.76 1082.86C864.616 1077.09 869.684 1076.35 877.204 1080.43C892.473 1088.75 900.068 1074.93 908.779 1067.09C915.986 1060.65 928.156 1052.5 924.803 1043.64C920.824 1033.21 906.632 1032.02 895.117 1031.01C882.878 1029.98 870.559 1027.25 858.453 1028.06C844.255 1029.01 828.589 1030.89 828.546 1051.38C828.515 1062.11 821.256 1066.94 812.413 1069.86C806.312 1071.91 799.467 1073.3 794.884 1067.38C789.128 1059.87 792.289 1051.81 795.159 1043.98C801.746 1025.95 815.206 1017.53 833.681 1015.3C860.935 1012.01 887.723 1017.59 914.622 1019.61C932.988 1020.94 945.76 1016.02 955.79 1000.25C970.026 977.881 985.639 956.392 1000.62 934.549C1002.88 931.232 1008.58 928.205 1003.94 923.611C1000.3 920.033 994.93 918.357 990.207 922.077C986.359 925.095 983.264 928.213 980.305 921.569C977.803 915.933 979.647 911.132 985.053 909.262C1009.08 900.983 1030.59 887.493 1053.06 876.044C1057.46 873.833 1063.38 871.647 1066.63 877.135C1069.11 881.349 1065.65 885.652 1062.61 888.919C1052.47 899.725 1042.18 910.337 1031.96 921.045C1032.74 922.019 1033.5 923.043 1034.28 924.017L1034.3 924.091ZM1045.28 962.129C1049.35 952.764 1054.35 946.04 1047.97 940.029C1042.46 934.788 1036.05 939.51 1030.45 941.66C1015.56 947.451 1007.12 960.025 999.297 972.879C993.249 982.806 998.986 985.02 1007.72 984.192C1024.97 982.494 1038.66 975.044 1045.26 962.055L1045.28 962.129Z" fill="#E5383B" fill-opacity="0.04"/>
<path d="M1211.59 739.404C1227.82 726.183 1241.34 714.969 1255.14 704.071C1259.57 700.585 1264.3 696.99 1269.53 695.101C1276.25 692.666 1284.05 692.517 1288.1 699.601C1291.67 705.852 1285.77 710.134 1281.59 713.736C1258.24 733.874 1232.29 750.476 1208.88 770.765C1175.05 800.198 1136.4 822.62 1094.1 838.695C1045.96 856.927 1002.5 847.654 962.443 818.206C955.285 812.943 942.059 805.253 955.687 792.738C966.309 783.014 975.294 782.978 986.384 794.105C1008.49 816.264 1033.95 828.731 1067.7 823.462C1113.78 816.253 1148.49 792.633 1176.62 757.317C1192.96 736.778 1188.96 713.319 1183.53 690.304C1180.38 676.877 1167.15 681.342 1158.47 677.775C1154.55 676.153 1148.56 677.017 1147.7 671.953C1146.59 665.299 1152.78 664.403 1157.49 662.705C1162.82 660.738 1167.93 658.18 1173.34 656.559C1191.69 651.008 1208.73 661.621 1213.19 680.324C1217.67 699.15 1213.69 717.772 1211.57 739.455L1211.59 739.404Z" fill="#E5383B" fill-opacity="0.04"/>
<path d="M597.586 728.299C615.238 735.449 630.408 741.455 645.438 747.765C648.829 749.204 652.594 751.431 651.569 756.056C651.088 758.168 648.433 761.797 647.478 761.602C622.349 755.614 619.468 778.669 612.943 791.631C604.306 808.779 594.694 810.309 579.929 803.691C561.391 795.396 544.036 785.067 529.285 771.085C514.92 757.466 515.53 739.076 517.71 721.41C521.017 694.498 535.176 672.831 555.289 655.442C580.864 633.261 608.396 642.568 635.496 652.411C640.8 654.364 645.833 657.174 650.95 659.532C678.259 671.99 681.521 678.774 673.555 707.532C672.102 712.82 671.855 720.69 665.375 721.022C658.097 721.354 658.706 713.097 657.245 708.002C649.134 679.208 623.55 663.675 596.713 671.394C562.431 681.272 541.56 726.441 556.279 758.893C557.325 761.156 558.569 763.388 559.935 765.491C567.09 776.894 579.307 778.776 590.012 776.338C600.422 774.01 601.528 762.543 600.967 752.826C600.509 745.553 598.98 738.338 597.59 728.424L597.586 728.299ZM629.544 655.996C633.197 674.2 643.164 672.834 656.429 669.241C648.591 661.454 640.566 658.739 629.544 655.996Z" fill="#E5383B" fill-opacity="0.04"/>
<path d="M587.046 209.574C582.618 217.053 580.108 226.768 579.387 236.999C577.055 270.994 603.933 291.053 636.187 279.442C639.124 278.4 642.28 277.95 645.085 276.663C652.072 273.495 658.036 275.751 661.34 281.511C665.542 288.79 657.373 290.922 653.541 293.64C620.614 316.979 564.838 304.18 546.809 268.114C534.941 244.406 545.799 220.972 553.98 198.947C570.161 155.425 615.573 143.121 655.649 155.197C667.673 158.832 679.148 164.057 691.016 168.296C696.925 170.404 704.917 171.323 704.689 179.018C704.428 188.785 698.998 196.97 690.613 202.504C683.401 207.227 677.133 204.032 671.764 199.286C665.778 194.011 662.013 187.117 653.758 183.436C620.182 168.582 602.999 174.546 587.046 209.574Z" fill="#E5383B" fill-opacity="0.04"/>
<path d="M953.977 937.383C936.681 953.859 915.374 962.775 891.396 963.889C880.852 964.374 875.299 957.762 882.347 946.331C885.55 941.112 890.625 934.361 885.166 929.144C880.378 924.604 873.777 929.731 867.965 931.414C856.859 934.588 843.397 946.075 834.829 936.539C824.94 925.472 838.911 913.545 844.155 902.696C850.497 889.465 860.951 879.172 870.586 868.257C876.512 861.529 880.889 853.228 865.155 852.981C860.759 852.921 855.772 852.281 856.219 845.977C856.508 841.75 859.58 839.48 863.511 838.282C878.591 833.683 893.565 828.912 908.704 824.586C914.789 822.845 921.809 821.473 926.244 827.447C931.592 834.639 924.242 838.992 920.669 843.548C907.582 860.489 891.602 875.175 880.92 893.961C878.344 898.486 873.169 903.718 877.916 909.282C882.767 915.018 888.737 910.46 893.517 908.485C919.996 897.408 938.75 876.568 955.523 854.693C963.717 843.974 970.359 841.69 979.939 849.297C990.337 857.527 981.669 865.141 977.174 872.098C968.156 885.939 956.748 897.634 943.773 907.932C939.341 911.418 935.304 915.515 931.851 919.943C928.854 923.782 924.119 928.726 926.987 933.302C929.905 937.901 936.122 935.606 941.081 934.575C944.677 933.836 948.304 933.296 951.904 932.682C952.58 934.283 953.306 935.907 953.981 937.508L953.977 937.383Z" fill="#E5383B" fill-opacity="0.04"/>
<path d="M764.294 631.908C748.065 631.002 736.898 642.44 723.514 648.558C719.923 650.22 718.491 657.728 713.072 653.758C707.423 649.62 712.215 644.151 714.114 640.296C719.413 629.594 725.955 619.527 731.761 609.058C733.2 606.466 735.029 603.563 731.927 597.896C718.658 605.233 705.419 612.768 691.915 619.813C685.36 623.242 677.863 628.448 670.791 622.733C662.95 616.418 667.522 607.961 669.238 599.969C677.595 561.564 701.906 537.327 737.287 523.595C756.963 515.954 777.306 520.597 796.041 527.263C806.444 530.95 801.612 540.639 796.197 547.725C783.519 564.178 767.979 578.576 759.745 598.182C757.147 604.355 752.062 610.059 754.901 618.429C762.599 616.387 770.297 614.344 778.984 612.021C778.985 623.752 765.624 623.554 763.675 632.052L764.267 631.834L764.294 631.908ZM753.37 557.352C759.439 544.978 758.388 540.194 750.933 539.708C736.126 538.782 707.813 562.773 705.58 578.019C704.37 586.245 707.285 591.518 715.773 587.628C731.419 580.465 744.788 569.98 753.394 557.301L753.37 557.352Z" fill="#E5383B" fill-opacity="0.04"/>
<path d="M587.849 585.566C542.581 566.492 547.504 533.138 560.772 496.873C573.969 460.76 609.632 448.017 642.166 462.331C676.904 477.597 689.663 516.702 677.669 541.27C656.886 583.715 622.112 601.596 587.9 585.589L587.849 585.566ZM647.249 547.032C657.435 531.457 653.662 514.979 649.313 499.218C644.539 481.848 623.922 470.999 611.762 477.926C584.405 493.574 573.864 522.988 584.929 552.837C594.327 578.171 620.776 582.494 638.049 561.402C641.654 557.044 644.159 551.872 647.175 547.059L647.249 547.032Z" fill="#E5383B" fill-opacity="0.04"/>
<path d="M790.227 284.816C769.888 316.963 744.776 343.472 705.263 349.773C681.867 353.489 673.358 338.76 679.03 316.315C689.111 276.432 717.228 255.668 751.325 239.256C765.682 232.359 779.379 232.896 788.471 245.56C796.674 256.955 797.305 271.187 790.227 284.816ZM708.1 298.815C702.911 310.612 705.38 319.918 714.086 321.288C735.488 324.699 764 299.879 764.318 277.854C764.47 266.992 760.157 262.487 749.323 265.603C730.92 270.882 717.275 282.099 708.049 298.792L708.1 298.815Z" fill="#E5383B" fill-opacity="0.04"/>
<path d="M848.013 836.055C838.977 861.003 813.072 875.232 789.405 891.537C780.393 897.764 769.476 899.061 758.601 898.534C742.675 897.768 733.179 887.313 737.322 872.455C750.324 825.566 771.91 799.644 820.999 784.426C833.11 780.67 844.301 786.379 849.131 794.562C855.49 805.291 858.435 819.3 848.064 836.079L848.013 836.055ZM820.617 841.92C827.884 825.615 824.765 813.184 814.571 812.91C797.232 812.415 768.132 837.578 766.014 854.843C764.647 865.943 768.492 870.663 780.622 869.802C800.921 868.406 810.14 853.062 820.617 841.92Z" fill="#E5383B" fill-opacity="0.04"/>
<path d="M727.074 759.764C725.621 764.253 718.941 768.485 723.609 773.153C728.947 778.499 733.735 772.107 738.218 769.443C741.992 767.251 745.676 764.588 748.927 761.664C756.933 754.42 765.874 752.213 774.595 758.749C782.139 764.374 779.535 772.694 775.577 779.284C770.152 788.393 761.018 797.021 750.937 791.701C732.757 782.097 724.17 793.802 711.728 802.81C691.602 817.429 683.609 841.445 665.926 856.76C660.486 861.501 672.997 875.678 656.597 871.009C645.739 867.911 640.29 845.072 649.383 832.802C660.847 817.385 673.948 803.215 685.489 787.896C696.649 773.139 693.355 765.357 676.064 763.287C672.806 762.892 667.993 766.14 667.127 760.152C666.606 756.35 668.017 752.087 671.683 750.398C685.728 743.91 699.774 737.422 714.203 731.97C719.948 729.765 724.6 733.935 728.524 738.752C734.787 746.49 730.424 752.893 727.07 759.64L727.074 759.764Z" fill="#E5383B" fill-opacity="0.04"/>
<path d="M1030.75 775.669C1036.63 769.167 1043.17 760.572 1051.09 753.53C1059.73 745.842 1066.78 736.931 1072.61 727.335C1083.33 709.672 1079.87 703.717 1060 703.652C1056.68 703.657 1053.55 704.181 1052.11 700.633C1050.43 696.419 1052.59 692.93 1056.18 691.268C1069.81 684.894 1083.29 678.024 1097.46 673.005C1109.18 668.887 1118.95 680.757 1114.94 693.339C1113.42 698.105 1110.41 702.369 1108.61 707.069C1107.85 709.115 1107.58 712.244 1108.6 713.883C1110.73 717.135 1114.34 716.097 1116.98 714.365C1122.73 710.563 1128.36 706.465 1133.82 702.222C1141.63 696.058 1150.07 690.672 1159.22 698.143C1166.01 703.667 1164.65 712.372 1160.94 719.079C1155.85 728.402 1146.94 736.947 1136.46 731.815C1117.6 722.632 1108.28 734.31 1095.47 744.129C1078.27 757.332 1068.76 775.431 1057.33 792.518C1051.11 801.752 1042.4 801.979 1034.03 797.753C1025.48 793.384 1027.61 785.278 1030.78 775.743L1030.75 775.669Z" fill="#E5383B" fill-opacity="0.04"/>
<path d="M946.573 715.453C960.943 694.129 971.4 673.029 989.601 657.523C1004.25 645.051 1020.76 641.48 1038.91 645.294C1048.71 647.353 1057.07 652.802 1056.4 664.405C1055.7 675.509 1052.45 686.046 1039.24 688.439C1028.72 690.347 1018.05 691.635 1007.48 692.846C997.756 693.954 988.78 695.838 983.832 705.78C980.244 713.032 973.213 720.295 977.891 728.408C982.198 735.858 990.529 730.176 997.044 730.168C1001.89 730.189 1008.08 727.82 1009.64 734.684C1010.77 739.565 1006.03 742.537 1002.3 744.627C988.835 752.12 974.086 756.134 958.874 756.619C946.604 756.985 940.282 748.975 941.395 736.959C942.137 728.948 945.132 721.115 946.573 715.453ZM1029.77 670.994C1030.6 667.998 1030.09 663.646 1026.24 662.671C1017.78 660.494 1012.6 666.275 1008.61 672.667C1006.54 675.953 1008.8 678.651 1012.19 679.417C1019.48 680.932 1025.51 679.042 1029.75 671.045L1029.77 670.994Z" fill="#E5383B" fill-opacity="0.04"/>
<path d="M919.915 415.315C931.883 396.139 942.272 376.788 958.648 361.24C972.093 348.457 987.684 344.216 1005.25 344.879C1018.05 345.37 1027.37 351.138 1027.94 365.097C1028.48 378.608 1023.13 388.613 1008.29 390.558C997.699 391.944 987.051 393.057 976.371 393.972C966.14 394.847 958.287 399.091 954.207 408.88C951.586 415.104 945.812 421.103 949.488 428.324C954.011 437.041 961.776 430.853 968.123 431.075C972.947 431.271 979.37 428.395 981.771 433.985C984.901 441.323 976.763 443.654 972.725 446.154C960.733 453.65 946.653 455.945 933.055 457.727C918.835 459.528 910.101 447.151 913.909 432.753C915.537 426.686 917.995 420.817 919.892 415.365L919.915 415.315ZM982.662 380.717C989.477 381.523 996.526 381.024 1000.81 374.398C1003.52 370.243 1002.71 365.327 997.514 363.546C988.857 360.602 985.672 368.716 980.895 373.086C978.033 375.698 978.752 378.67 982.638 380.768L982.662 380.717Z" fill="#E5383B" fill-opacity="0.04"/>
<path d="M1004.9 459.505C1019.49 432.508 1034.54 412.909 1051.81 394.762C1061.44 384.646 1072.67 381.218 1086.01 382.266C1096.19 383.089 1106.37 385.935 1106.14 397.623C1105.9 408.688 1110.37 422.847 1092.38 427.888C1082.31 430.68 1072.73 436.153 1062.04 435.894C1049.82 435.61 1042.02 440.551 1037.84 452.016C1034.17 462.117 1020.79 475.422 1046.5 474.553C1051.86 474.382 1056.48 479.95 1052.08 485.232C1042.69 496.564 1028.24 495.926 1015.61 496.129C1004.23 496.292 1000.6 484.852 1000.22 475.529C999.974 468.473 1004.29 461.247 1004.88 459.431L1004.9 459.505ZM1078.04 401.813C1070.49 402.204 1064.59 406.61 1060.98 414.588C1059.23 418.387 1058.67 422.124 1064 423.227C1073.43 425.173 1079.77 419.804 1084.44 412.866C1087.56 408.224 1083.95 404.72 1078.1 401.837L1078.04 401.813Z" fill="#E5383B" fill-opacity="0.04"/>
<path d="M1037.42 1105.72C1035.32 1111.63 1002.52 1123.61 996.065 1119.9C985.945 1114.13 985.745 1102.43 989.675 1094.96C995.722 1083.44 1007.24 1075.24 1020.85 1073.7C1026.62 1073.05 1039.53 1099.81 1037.42 1105.72Z" fill="#E5383B" fill-opacity="0.04"/>
<path d="M677.824 437.732C663.929 437.227 660.398 431.424 659.64 423.336C659.53 422.241 661.948 419.793 662.801 419.94C671.69 421.579 671.584 429.944 677.773 437.709L677.824 437.732Z" fill="#E5383B" fill-opacity="0.04"/>
<path d="M629.517 655.922C640.538 658.665 648.563 661.38 656.401 669.167C643.136 672.76 633.244 674.098 629.517 655.922Z" fill="#E5383B" fill-opacity="0.04"/>
</g>
<defs>
<clipPath id="clip0_8_5">
<rect width="1404.15" height="1422.42" fill="white" transform="translate(351 -295) rotate(24.7355)"/>
</clipPath>
</defs>
</svg>
